<mxfile host="app.diagrams.net" modified="2021-04-15T02:37:42.448Z" agent="5.0 (Windows NT 10.0; WOW64) AppleWebKit/537.36 (KHTML, like Gecko) Chrome/89.0.4389.128 Safari/537.36" etag="b1wpEp2JpXFibtnp6jC5" version="14.6.0" type="github">
  <diagram id="-LPgbs2Pfr4KTK-yrl9k" name="Page-1">
    <mxGraphModel dx="1550" dy="868" grid="1" gridSize="10" guides="1" tooltips="1" connect="1" arrows="1" fold="1" page="1" pageScale="1" pageWidth="827" pageHeight="1169" math="0" shadow="0">
      <root>
        <mxCell id="0" />
        <mxCell id="1" parent="0" />
        <mxCell id="bMpUHvNgEv0Hm8hHe3ty-3" style="edgeStyle=orthogonalEdgeStyle;rounded=0;orthogonalLoop=1;jettySize=auto;html=1;exitX=1;exitY=0.5;exitDx=0;exitDy=0;entryX=0;entryY=0.5;entryDx=0;entryDy=0;" parent="1" source="bMpUHvNgEv0Hm8hHe3ty-1" edge="1">
          <mxGeometry relative="1" as="geometry">
            <mxPoint x="230" y="220" as="targetPoint" />
          </mxGeometry>
        </mxCell>
        <mxCell id="bMpUHvNgEv0Hm8hHe3ty-1" value="&lt;font style=&quot;font-size: 10px&quot;&gt;SCM&lt;br&gt;docker编译发布&lt;/font&gt;" style="rounded=1;whiteSpace=wrap;html=1;fillColor=#dae8fc;strokeColor=#6c8ebf;" parent="1" vertex="1">
          <mxGeometry x="90" y="200" width="90" height="40" as="geometry" />
        </mxCell>
        <mxCell id="bMpUHvNgEv0Hm8hHe3ty-9" style="edgeStyle=orthogonalEdgeStyle;rounded=0;orthogonalLoop=1;jettySize=auto;html=1;entryX=0.5;entryY=0;entryDx=0;entryDy=0;" parent="1" target="bMpUHvNgEv0Hm8hHe3ty-12" edge="1">
          <mxGeometry relative="1" as="geometry">
            <mxPoint x="279.5" y="280" as="targetPoint" />
            <mxPoint x="275" y="240" as="sourcePoint" />
          </mxGeometry>
        </mxCell>
        <mxCell id="KtwsOvVWbsPPOw_05dxw-3" style="edgeStyle=orthogonalEdgeStyle;rounded=0;orthogonalLoop=1;jettySize=auto;html=1;exitX=0.5;exitY=0;exitDx=0;exitDy=0;entryX=1;entryY=0.5;entryDx=0;entryDy=0;" parent="1" source="bMpUHvNgEv0Hm8hHe3ty-6" target="KtwsOvVWbsPPOw_05dxw-2" edge="1">
          <mxGeometry relative="1" as="geometry" />
        </mxCell>
        <mxCell id="KtwsOvVWbsPPOw_05dxw-4" value="回调" style="edgeLabel;html=1;align=center;verticalAlign=middle;resizable=0;points=[];" parent="KtwsOvVWbsPPOw_05dxw-3" vertex="1" connectable="0">
          <mxGeometry x="0.3295" relative="1" as="geometry">
            <mxPoint x="15" y="-10" as="offset" />
          </mxGeometry>
        </mxCell>
        <mxCell id="bMpUHvNgEv0Hm8hHe3ty-6" value="&lt;span style=&quot;font-size: 10px&quot;&gt;调用TestOps发布接口&lt;/span&gt;" style="rounded=1;whiteSpace=wrap;html=1;fillColor=#e1d5e7;strokeColor=#9673a6;" parent="1" vertex="1">
          <mxGeometry x="690" y="200" width="90" height="40" as="geometry" />
        </mxCell>
        <mxCell id="bMpUHvNgEv0Hm8hHe3ty-24" style="edgeStyle=orthogonalEdgeStyle;rounded=0;orthogonalLoop=1;jettySize=auto;html=1;exitX=0.5;exitY=1;exitDx=0;exitDy=0;entryX=0.5;entryY=0;entryDx=0;entryDy=0;" parent="1" source="bMpUHvNgEv0Hm8hHe3ty-12" edge="1" target="bMpUHvNgEv0Hm8hHe3ty-25">
          <mxGeometry relative="1" as="geometry">
            <mxPoint x="279.8620689655173" y="440" as="targetPoint" />
          </mxGeometry>
        </mxCell>
        <mxCell id="bMpUHvNgEv0Hm8hHe3ty-12" value="&lt;span style=&quot;font-size: 10px&quot;&gt;应用包编译&lt;br&gt;celery task&lt;/span&gt;" style="rounded=1;whiteSpace=wrap;html=1;fillColor=#d5e8d4;strokeColor=#82b366;" parent="1" vertex="1">
          <mxGeometry x="230" y="270" width="90" height="40" as="geometry" />
        </mxCell>
        <mxCell id="DeNcY2WeLsBX7iS7J6Gy-4" style="edgeStyle=orthogonalEdgeStyle;rounded=0;orthogonalLoop=1;jettySize=auto;html=1;exitX=1;exitY=0.5;exitDx=0;exitDy=0;entryX=0;entryY=0.5;entryDx=0;entryDy=0;" edge="1" parent="1" source="bMpUHvNgEv0Hm8hHe3ty-25" target="DeNcY2WeLsBX7iS7J6Gy-3">
          <mxGeometry relative="1" as="geometry" />
        </mxCell>
        <mxCell id="DeNcY2WeLsBX7iS7J6Gy-5" value="回调" style="edgeLabel;html=1;align=center;verticalAlign=middle;resizable=0;points=[];" vertex="1" connectable="0" parent="DeNcY2WeLsBX7iS7J6Gy-4">
          <mxGeometry x="-0.057" relative="1" as="geometry">
            <mxPoint as="offset" />
          </mxGeometry>
        </mxCell>
        <mxCell id="bMpUHvNgEv0Hm8hHe3ty-25" value="&lt;span style=&quot;font-size: 10px&quot;&gt;Jenkins job&lt;br&gt;&lt;/span&gt;" style="rounded=1;whiteSpace=wrap;html=1;fillColor=#d5e8d4;strokeColor=#82b366;" parent="1" vertex="1">
          <mxGeometry x="230" y="360" width="90" height="40" as="geometry" />
        </mxCell>
        <mxCell id="DeNcY2WeLsBX7iS7J6Gy-15" style="edgeStyle=orthogonalEdgeStyle;rounded=0;orthogonalLoop=1;jettySize=auto;html=1;exitX=0;exitY=0.5;exitDx=0;exitDy=0;" edge="1" parent="1" source="KtwsOvVWbsPPOw_05dxw-2" target="KtwsOvVWbsPPOw_05dxw-5">
          <mxGeometry relative="1" as="geometry" />
        </mxCell>
        <mxCell id="KtwsOvVWbsPPOw_05dxw-2" value="&lt;font style=&quot;font-size: 10px&quot;&gt;caocao_release&lt;br&gt;testops_callback&lt;br&gt;&lt;/font&gt;" style="rounded=1;whiteSpace=wrap;html=1;fillColor=#d5e8d4;strokeColor=#82b366;" parent="1" vertex="1">
          <mxGeometry x="600" y="100" width="90" height="40" as="geometry" />
        </mxCell>
        <mxCell id="KtwsOvVWbsPPOw_05dxw-5" value="&lt;font style=&quot;font-size: 10px&quot;&gt;SCM&lt;br&gt;docker编译发布回调&lt;/font&gt;" style="rounded=1;whiteSpace=wrap;html=1;fillColor=#dae8fc;strokeColor=#6c8ebf;" parent="1" vertex="1">
          <mxGeometry x="420" y="100" width="90" height="40" as="geometry" />
        </mxCell>
        <mxCell id="DeNcY2WeLsBX7iS7J6Gy-1" value="&lt;font style=&quot;font-size: 10px&quot;&gt;caocao_release&lt;br&gt;编译发布接口&lt;br&gt;&lt;/font&gt;" style="rounded=1;whiteSpace=wrap;html=1;fillColor=#d5e8d4;strokeColor=#82b366;" vertex="1" parent="1">
          <mxGeometry x="230" y="200" width="90" height="40" as="geometry" />
        </mxCell>
        <mxCell id="DeNcY2WeLsBX7iS7J6Gy-13" style="edgeStyle=orthogonalEdgeStyle;rounded=0;orthogonalLoop=1;jettySize=auto;html=1;exitX=1;exitY=0.5;exitDx=0;exitDy=0;entryX=0;entryY=0.5;entryDx=0;entryDy=0;" edge="1" parent="1" source="DeNcY2WeLsBX7iS7J6Gy-3" target="DeNcY2WeLsBX7iS7J6Gy-12">
          <mxGeometry relative="1" as="geometry" />
        </mxCell>
        <mxCell id="DeNcY2WeLsBX7iS7J6Gy-3" value="&lt;font style=&quot;font-size: 10px&quot;&gt;caocao_release&lt;br&gt;jenkins 编译回调&lt;br&gt;&lt;/font&gt;" style="rounded=1;whiteSpace=wrap;html=1;fillColor=#d5e8d4;strokeColor=#82b366;" vertex="1" parent="1">
          <mxGeometry x="369" y="200" width="90" height="40" as="geometry" />
        </mxCell>
        <mxCell id="DeNcY2WeLsBX7iS7J6Gy-14" value="是" style="edgeStyle=orthogonalEdgeStyle;rounded=0;orthogonalLoop=1;jettySize=auto;html=1;entryX=0;entryY=0.5;entryDx=0;entryDy=0;" edge="1" parent="1" source="DeNcY2WeLsBX7iS7J6Gy-12" target="bMpUHvNgEv0Hm8hHe3ty-6">
          <mxGeometry relative="1" as="geometry">
            <Array as="points">
              <mxPoint x="640" y="220" />
              <mxPoint x="640" y="220" />
            </Array>
          </mxGeometry>
        </mxCell>
        <mxCell id="DeNcY2WeLsBX7iS7J6Gy-18" style="edgeStyle=orthogonalEdgeStyle;rounded=0;orthogonalLoop=1;jettySize=auto;html=1;exitX=0.5;exitY=1;exitDx=0;exitDy=0;entryX=0.5;entryY=0;entryDx=0;entryDy=0;" edge="1" parent="1" source="DeNcY2WeLsBX7iS7J6Gy-12" target="DeNcY2WeLsBX7iS7J6Gy-17">
          <mxGeometry relative="1" as="geometry" />
        </mxCell>
        <mxCell id="DeNcY2WeLsBX7iS7J6Gy-19" value="否" style="edgeLabel;html=1;align=center;verticalAlign=middle;resizable=0;points=[];" vertex="1" connectable="0" parent="DeNcY2WeLsBX7iS7J6Gy-18">
          <mxGeometry x="-0.2386" y="-2" relative="1" as="geometry">
            <mxPoint as="offset" />
          </mxGeometry>
        </mxCell>
        <mxCell id="DeNcY2WeLsBX7iS7J6Gy-12" value="判断是否&lt;br&gt;TestOps发布" style="rhombus;whiteSpace=wrap;html=1;fillColor=#ffe6cc;strokeColor=#d79b00;" vertex="1" parent="1">
          <mxGeometry x="510" y="186.25" width="110" height="67.5" as="geometry" />
        </mxCell>
        <mxCell id="DeNcY2WeLsBX7iS7J6Gy-17" value="&lt;font style=&quot;font-size: 10px&quot;&gt;原有发布逻辑&lt;br&gt;&lt;/font&gt;" style="rounded=1;whiteSpace=wrap;html=1;fillColor=#d5e8d4;strokeColor=#82b366;" vertex="1" parent="1">
          <mxGeometry x="520" y="360" width="90" height="40" as="geometry" />
        </mxCell>
      </root>
    </mxGraphModel>
  </diagram>
</mxfile>
